<svg width="19" height="18" viewBox="0 0 19 18" fill="none" xmlns="http://www.w3.org/2000/svg">
    <g clip-path="url(#clip0_2720_893)">
        <path
            d="M6.22617 11.6369H6.22699C6.22768 11.6369 6.22836 11.6367 6.22905 11.6367H15.79C16.0254 11.6367 16.2324 11.4806 16.2971 11.2543L18.4064 3.87144C18.4519 3.71228 18.42 3.54117 18.3205 3.40906C18.2208 3.27695 18.0649 3.19922 17.8994 3.19922H5.00998L4.63301 1.50279C4.57932 1.26151 4.36536 1.08984 4.11816 1.08984H0.954102C0.662827 1.08984 0.426758 1.32591 0.426758 1.61719C0.426758 1.90846 0.662827 2.14453 0.954102 2.14453H3.69519C3.76193 2.44514 5.49915 10.2627 5.59912 10.7125C5.03868 10.9561 4.64551 11.5149 4.64551 12.1641C4.64551 13.0364 5.35522 13.7461 6.22754 13.7461H15.79C16.0813 13.7461 16.3174 13.51 16.3174 13.2188C16.3174 12.9275 16.0813 12.6914 15.79 12.6914H6.22754C5.93681 12.6914 5.7002 12.4548 5.7002 12.1641C5.7002 11.8737 5.93599 11.6375 6.22617 11.6369ZM17.2003 4.25391L15.3922 10.582H6.65051L5.24426 4.25391H17.2003Z"
            fill="black" />
        <path
            d="M5.7002 15.3281C5.7002 16.2004 6.40991 16.9102 7.28223 16.9102C8.15454 16.9102 8.86426 16.2004 8.86426 15.3281C8.86426 14.4558 8.15454 13.7461 7.28223 13.7461C6.40991 13.7461 5.7002 14.4558 5.7002 15.3281ZM7.28223 14.8008C7.57295 14.8008 7.80957 15.0374 7.80957 15.3281C7.80957 15.6189 7.57295 15.8555 7.28223 15.8555C6.9915 15.8555 6.75488 15.6189 6.75488 15.3281C6.75488 15.0374 6.9915 14.8008 7.28223 14.8008Z"
            fill="black" />
        <path
            d="M13.1533 15.3281C13.1533 16.2004 13.863 16.9102 14.7354 16.9102C15.6077 16.9102 16.3174 16.2004 16.3174 15.3281C16.3174 14.4558 15.6077 13.7461 14.7354 13.7461C13.863 13.7461 13.1533 14.4558 13.1533 15.3281ZM14.7354 14.8008C15.0261 14.8008 15.2627 15.0374 15.2627 15.3281C15.2627 15.6189 15.0261 15.8555 14.7354 15.8555C14.4446 15.8555 14.208 15.6189 14.208 15.3281C14.208 15.0374 14.4446 14.8008 14.7354 14.8008Z"
            fill="black" />
    </g>
    <defs>
        <clipPath id="clip0_2720_893">
            <rect width="18" height="18" fill="white" transform="translate(0.426758)" />
        </clipPath>
    </defs>
</svg>